<svg width="48" height="48" viewBox="0 0 48 48" fill="none" xmlns="http://www.w3.org/2000/svg">
<path d="M4 1H44C45.6569 1 47 2.34315 47 4V44C47 45.6569 45.6569 47 44 47H4C2.34315 47 1 45.6569 1 44V4C1 2.34315 2.34315 1 4 1Z" stroke="black" stroke-width="2"/>
<path d="M21.952 29.832C21.952 30.408 21.808 30.936 21.52 31.416C21.232 31.896 20.848 32.28 20.368 32.568C19.888 32.856 19.36 33 18.784 33H14.176C13.6 33 13.064 32.856 12.568 32.568C12.088 32.28 11.704 31.896 11.416 31.416C11.128 30.936 10.984 30.408 10.984 29.832V29.112C10.984 28.808 11.088 28.552 11.296 28.344C11.52 28.12 11.784 28.008 12.088 28.008H12.76C13.048 28.008 13.296 28.12 13.504 28.344C13.728 28.552 13.84 28.808 13.84 29.112V29.832C13.84 29.912 13.872 29.992 13.936 30.072C14.016 30.136 14.096 30.168 14.176 30.168H18.784C18.864 30.168 18.936 30.136 19 30.072C19.064 29.992 19.096 29.912 19.096 29.832V27.648C19.096 27.472 19.016 27.36 18.856 27.312L13.096 25.152C12.456 24.928 11.944 24.536 11.56 23.976C11.176 23.416 10.984 22.8 10.984 22.128V19.968C10.984 19.376 11.128 18.84 11.416 18.36C11.704 17.88 12.088 17.496 12.568 17.208C13.064 16.92 13.6 16.776 14.176 16.776H18.784C19.36 16.776 19.888 16.92 20.368 17.208C20.848 17.496 21.232 17.88 21.52 18.36C21.808 18.84 21.952 19.376 21.952 19.968V20.616C21.952 20.92 21.84 21.176 21.616 21.384C21.408 21.592 21.152 21.696 20.848 21.696H20.2C19.896 21.696 19.632 21.592 19.408 21.384C19.2 21.176 19.096 20.92 19.096 20.616V19.968C19.096 19.744 18.992 19.632 18.784 19.632H14.176C14.096 19.632 14.016 19.664 13.936 19.728C13.872 19.792 13.84 19.872 13.84 19.968V22.128C13.84 22.32 13.92 22.44 14.08 22.488L19.864 24.648C20.488 24.872 20.992 25.264 21.376 25.824C21.76 26.384 21.952 26.992 21.952 27.648V29.832ZM36.4975 29.832C36.4975 30.408 36.3535 30.936 36.0655 31.416C35.7775 31.896 35.3935 32.28 34.9135 32.568C34.4335 32.856 33.9055 33 33.3295 33H29.0095C28.4335 33 27.8975 32.856 27.4015 32.568C26.9215 32.28 26.5375 31.896 26.2495 31.416C25.9615 30.936 25.8175 30.408 25.8175 29.832V28.104C25.8175 27.8 25.9215 27.544 26.1295 27.336C26.3535 27.112 26.6175 27 26.9215 27H27.5935C27.8975 27 28.1535 27.112 28.3615 27.336C28.5855 27.544 28.6975 27.8 28.6975 28.104V29.832C28.6975 29.912 28.7295 29.992 28.7935 30.072C28.8575 30.136 28.9295 30.168 29.0095 30.168H33.3295C33.4095 30.168 33.4815 30.136 33.5455 30.072C33.6095 29.992 33.6415 29.912 33.6415 29.832V17.88C33.6415 17.56 33.7455 17.296 33.9535 17.088C34.1775 16.88 34.4415 16.776 34.7455 16.776H35.3935C35.7135 16.776 35.9775 16.88 36.1855 17.088C36.3935 17.296 36.4975 17.56 36.4975 17.88V29.832Z" fill="black"/>
</svg>
