<svg width="20" height="23" viewBox="0 0 20 23" fill="none" xmlns="http://www.w3.org/2000/svg">
<path d="M18.0052 0.95497C17.8832 0.660434 17.6476 0.435085 17.3579 0.335804L17.3558 0.335095L17.3537 0.334386L17.3495 0.332957L17.3406 0.330032L17.3216 0.324059C17.3083 0.320009 17.2939 0.31588 17.2784 0.311728C17.2473 0.303426 17.2118 0.295079 17.1718 0.287339C17.0917 0.271836 16.9944 0.258854 16.8797 0.253139C16.6493 0.241664 16.3542 0.259652 15.9919 0.340607C15.3878 0.475596 14.6036 0.78397 13.619 1.41585C13.5546 1.45715 13.4894 1.49983 13.4233 1.54393C13.3572 1.52756 13.291 1.51174 13.2248 1.4965C11.4294 1.08343 9.57098 1.08343 7.77554 1.4965C7.70925 1.51175 7.64305 1.52756 7.57695 1.54394C7.51086 1.49983 7.44562 1.45715 7.38122 1.41585C6.39559 0.783644 5.60953 0.475326 5.00387 0.340439C4.64077 0.259585 4.34503 0.241697 4.1145 0.253127C3.9996 0.25882 3.90228 0.271724 3.82232 0.287114C3.7824 0.294797 3.74699 0.303066 3.71606 0.311279C3.7006 0.315385 3.68628 0.31948 3.67309 0.323474L3.65417 0.32938L3.64536 0.332249L3.6411 0.333666L3.63902 0.334364L3.63696 0.335061C3.34477 0.434466 3.10737 0.662008 2.98555 0.959436C2.53181 2.06732 2.41137 3.28901 2.6299 4.46094C2.64052 4.51788 2.65194 4.5747 2.66415 4.6314C2.61731 4.69795 2.57179 4.76539 2.52761 4.83369C1.84618 5.88725 1.48372 7.1439 1.50071 8.4343C1.50234 11.1979 2.30961 13.0906 3.67485 14.3086C4.44766 14.998 5.34461 15.4199 6.24608 15.6859C6.34923 15.7164 6.45244 15.7447 6.55554 15.7713C6.54049 15.8236 6.52646 15.8764 6.51347 15.9295C6.45888 16.1527 6.42269 16.3818 6.40594 16.6144C6.40442 16.6354 6.40346 16.6564 6.40308 16.6775L6.36491 18.7236L6.3647 18.7458C6.3647 18.7522 6.3647 18.7586 6.3647 18.7649C6.29545 18.7821 6.22506 18.7948 6.15393 18.803C5.93475 18.8284 5.71276 18.8099 5.50062 18.7488C5.28846 18.6877 5.09018 18.5851 4.91721 18.4468C4.74425 18.3084 4.59997 18.1368 4.49285 17.9419L4.48182 17.9223C4.18691 17.4102 3.77956 16.9719 3.29035 16.6407C2.80113 16.3094 2.24295 16.094 1.65803 16.0111C1.04286 15.9239 0.473475 16.3519 0.386276 16.9672C0.299077 17.5823 0.727084 18.1517 1.34226 18.2389C1.58793 18.2737 1.82274 18.3642 2.02889 18.5038C2.23261 18.6417 2.40312 18.8241 2.52758 19.0375C2.77643 19.4866 3.11061 19.8828 3.51151 20.2036C3.91597 20.5272 4.38036 20.7676 4.87806 20.911C5.36267 21.0505 5.86941 21.0952 6.37068 21.0428C6.37169 21.3127 6.37241 21.5198 6.37241 21.625C6.37241 22.2463 6.84962 22.75 7.43828 22.75H13.6003C14.1889 22.75 14.6661 22.2463 14.6661 21.625V17.3607C14.6951 16.8777 14.6456 16.3936 14.5205 15.9295C14.5033 15.8656 14.4846 15.802 14.4646 15.7389C14.5318 15.7221 14.5989 15.7045 14.6661 15.6859C15.5937 15.4304 16.5202 15.0127 17.3162 14.3106C18.689 13.0994 19.498 11.2051 19.4996 8.4343C19.5165 7.1439 19.1541 5.88725 18.4727 4.83369C18.4284 4.76528 18.3829 4.69773 18.3359 4.63108C18.348 4.57449 18.3594 4.51778 18.3699 4.46094C18.588 3.28676 18.4644 2.06285 18.0052 0.95497Z" fill="black"/>
</svg>
