<svg width="21" height="21" viewBox="0 0 21 21" fill="none" xmlns="http://www.w3.org/2000/svg">
<path d="M2.99163 5.98325C4.64386 5.98325 5.98325 4.64386 5.98325 2.99163C5.98325 1.3394 4.64386 0 2.99163 0C1.3394 0 0 1.3394 0 2.99163C0 4.64386 1.3394 5.98325 2.99163 5.98325Z" fill="black"/>
<path d="M10.5 5.98325C12.1522 5.98325 13.4916 4.64386 13.4916 2.99163C13.4916 1.3394 12.1522 0 10.5 0C8.84777 0 7.50837 1.3394 7.50837 2.99163C7.50837 4.64386 8.84777 5.98325 10.5 5.98325Z" fill="black"/>
<path d="M10.5 13.4916C12.1522 13.4916 13.4916 12.1522 13.4916 10.5C13.4916 8.84777 12.1522 7.50837 10.5 7.50837C8.84777 7.50837 7.50837 8.84777 7.50837 10.5C7.50837 12.1522 8.84777 13.4916 10.5 13.4916Z" fill="black"/>
<path d="M10.5 21C12.1522 21 13.4916 19.6606 13.4916 18.0084C13.4916 16.3561 12.1522 15.0167 10.5 15.0167C8.84777 15.0167 7.50837 16.3561 7.50837 18.0084C7.50837 19.6606 8.84777 21 10.5 21Z" fill="black"/>
<path d="M18.0084 5.98325C19.6606 5.98325 21 4.64386 21 2.99163C21 1.3394 19.6606 0 18.0084 0C16.3561 0 15.0167 1.3394 15.0167 2.99163C15.0167 4.64386 16.3561 5.98325 18.0084 5.98325Z" fill="black"/>
</svg>
