<svg width="20" height="20" viewBox="0 0 20 20" fill="none" xmlns="http://www.w3.org/2000/svg">
<path d="M15.8225 4.985C15.8225 5.495 15.3975 5.8775 14.93 5.8775C14.42 5.8775 14.0375 5.4525 14.0375 4.985C14.0375 4.475 14.4625 4.0925 14.93 4.0925C15.3975 4.05 15.8225 4.475 15.8225 4.985ZM19.3075 5.3675V14.6325C19.3075 17.2675 17.14 19.435 14.505 19.435H5.24C2.605 19.435 0.4375 17.2675 0.4375 14.6325V5.3675C0.4375 2.7325 2.605 0.564999 5.24 0.564999H14.505C17.1825 0.564999 19.3075 2.7325 19.3075 5.3675ZM17.5225 5.3675C17.5225 3.71 16.1625 2.35 14.505 2.35H5.24C3.5825 2.35 2.2225 3.71 2.2225 5.3675V14.6325C2.2225 16.29 3.5825 17.65 5.24 17.65H14.505C16.205 17.65 17.565 16.29 17.565 14.6325L17.5225 5.3675ZM14.8025 10C14.8025 7.28 12.5925 5.07 9.8725 5.07C7.1525 5.07 4.9425 7.28 4.9425 10C4.9425 12.72 7.1525 14.93 9.8725 14.93C12.5925 14.93 14.8025 12.72 14.8025 10ZM13.0175 10C13.0175 11.7425 11.615 13.145 9.8725 13.145C8.13 13.145 6.7275 11.7425 6.7275 10C6.7275 8.2575 8.13 6.855 9.8725 6.855C11.615 6.855 13.0175 8.2575 13.0175 10Z" fill="black"/>
</svg>
